#!OML:ASF C:\ViconDB\ViconDB\414\Spring2016\041811\Spring2016.ASF
:FULLY-SPECIFIED
:DEGREES
347
root 11.2584 19.373 -9.73243 548.57 -10.8649 177.394
lowerback 4.23094 -0.19878 -8.28626
upperback -0.754019 -0.831943 -1.28331
thorax -3.07326 -0.312921 3.37199
lowerneck -22.3138 -0.426434 -12.8887
upperneck 18.462 -1.72587 20.384
head 9.84688 0.334695 9.39559
rclavicle -2.39536e-014 -2.14687e-014
rhumerus -48.1355 -26.4496 8.584
rradius 27.0422
rwrist 44.0465
rhand -28.8082 -12.9276
rfingers 7.12502
rthumb -2.1665 -42.8964
lclavicle -2.39536e-014 -2.14687e-014
lhumerus -32.7842 -14.476 4.83084
lradius 21.6324
lwrist -4.43087
lhand -26.9465 22.6267
lfingers 7.12502
lthumb -0.368405 52.6061
rfemur -9.15453 -223.734 8.56651
rtibia 28.4945
rfoot -66.4815 -60.5584
rtoes 2.65958
lfemur -11.0913 -21.0446 -4.84025
ltibia 26.7488
lfoot -17.4148 12.9206
ltoes -9.06397
348
root 11.2509 19.4437 -9.71826 549.298 -8.84318 177.476
lowerback 4.34958 -0.32648 -8.32731
upperback -0.985567 -1.02027 -1.13479
thorax -3.35655 -0.384626 3.56487
lowerneck -22.5726 -0.200054 -12.5109
upperneck 18.7914 -1.47704 20.022
head 9.95237 0.452535 9.24424
rclavicle 1.53064e-014 2.38542e-014
rhumerus -49.4045 -26.3817 8.99299
rradius 26.7223
rwrist 45.1154
rhand -29.0271 -13.0791
rfingers 7.12502
rthumb -2.37786 -43.0456
lclavicle 1.53064e-014 2.38542e-014
lhumerus -32.0564 -14.3775 4.90368
lradius 21.7083
lwrist -4.83888
lhand -26.9437 22.5775
lfingers 7.12502
lthumb -0.365715 52.5569
rfemur -5.17138 -230.92 11.6595
rtibia 27.4248
rfoot -82.3155 -58.6221
rtoes 2.78657
lfemur -13.0905 -22.0804 -5.03946
ltibia 27.3356
lfoot -18.7171 10.6174
ltoes -10.1714
349
root 11.2289 19.5023 -9.7033 550.097 -6.65512 177.313
lowerback 4.28398 -0.391533 -8.55616
upperback -1.15195 -1.12053 -1.04657
thorax -3.47683 -0.419518 3.79157
lowerneck -22.6341 0.0112761 -12.3492
upperneck 18.7869 -1.16726 19.7868
head 9.89666 0.589336 9.16047
rclavicle 4.96962e-016 -1.19271e-015
rhumerus -50.4516 -26.5249 9.59372
rradius 26.2572
rwrist 46.2473
rhand -28.852 -13.2056
rfingers 7.12502
rthumb -2.20875 -43.174
lclavicle 4.96962e-016 -1.19271e-015
lhumerus -31.5566 -14.5633 5.22636
lradius 22.3084
lwrist -4.40894
lhand -27.2622 22.8201
lfingers 7.12502
lthumb -0.673305 52.7988
rfemur 1.01404 -239.709 17.1213
rtibia 26.7376
rfoot -98.787 -54.6383
rtoes 2.13869
lfemur -15.2962 -22.9244 -5.54561
ltibia 28.2765
lfoot -19.9807 8.1461
ltoes -11.4951
350
root 11.2028 19.5528 -9.70481 551.054 -4.57042 177.426
lowerback 3.86609 -0.62199 -8.48566
upperback -1.36887 -1.38739 -0.937129
thorax -3.43169 -0.54752 3.87767
lowerneck -23.1161 0.248904 -12.0777
upperneck 19.2653 -0.927177 19.616
head 10.1051 0.718373 9.1265
rclavicle -6.16232e-015 -3.69739e-014
rhumerus -51.5279 -27.3054 10.4116
rradius 26.0591
rwrist 47.6804
rhand -28.7574 -12.716
rfingers 7.12502
rthumb -2.11743 -42.6852
lclavicle -6.16232e-015 -3.69739e-014
lhumerus -31.145 -15.3164 5.3904
lradius 22.9296
lwrist -3.098
lhand -27.8219 23.3981
lfingers 7.12502
lthumb -1.21387 53.3744
rfemur 13.0976 -249.174 29.2564
rtibia 26.3687
rfoot -113.288 -50.0969
rtoes 3.99542
lfemur -17.8255 -23.5918 -5.63785
ltibia 29.2971
lfoot -21.3384 5.68153
ltoes -12.9713
351
root 11.1849 19.5767 -9.71592 551.783 -2.50972 177.458
lowerback 3.42794 -0.706081 -8.54412
upperback -1.44362 -1.45529 -0.812387
thorax -3.24882 -0.583453 4.0358
lowerneck -23.3512 0.306021 -12.1773
upperneck 19.4357 -0.807809 19.5759
head 10.1846 0.769988 9.16677
rclavicle 1.71949e-014 3.4191e-014
rhumerus -52.1403 -26.2705 10.3183
rradius 25.9097
rwrist 46.9122
rhand -28.5797 -12.5733
rfingers 7.12502
rthumb -1.94577 -42.5442
lclavicle 1.71949e-014 3.4191e-014
lhumerus -30.3328 -14.8637 5.27243
lradius 23.5133
lwrist -2.95396
lhand -28.322 23.5683
lfingers 7.12502
lthumb -1.69691 53.5413
rfemur 33.7333 -255.863 50.1324
rtibia 26.2624
rfoot -122.778 -48.4424
rtoes 11.0015
lfemur -20.065 -24.0989 -5.83842
ltibia 30.1506
lfoot -22.4496 3.35152
ltoes -14.1317
352
root 11.1559 19.6101 -9.72554 552.661 -0.356645 177.653
lowerback 2.55194 -0.804561 -8.36442
upperback -1.40696 -1.47568 -0.642533
thorax -2.71077 -0.616378 4.09334
lowerneck -23.682 -0.47649 -11.8746
upperneck 19.6959 -0.388834 19.2343
head 10.3002 1.52514 9.17076
rclavicle 1.22253e-014 3.57812e-015
rhumerus -53.1627 -27.3571 11.9116
rradius 25.699
rwrist 48.5169
rhand -28.063 -12.2573
rfingers 7.12502
rthumb -1.44672 -42.2322
lclavicle 1.22253e-014 3.57812e-015
lhumerus -29.5122 -14.9276 5.38742
lradius 23.8276
lwrist -2.621
lhand -29.4052 23.8035
lfingers 7.12502
lthumb -2.74304 53.7656
rfemur 123.959 -102.054 -107.472
rtibia -26.2537
rfoot -127.134 -132.514
rtoes 13.4228
lfemur -22.323 -24.0903 -5.92096
ltibia 30.7009
lfoot -23.0258 1.14503
ltoes -15.4336
353
root 11.1303 19.6553 -9.72787 553.397 1.69526 178.525
lowerback 2.17959 -0.937513 -7.49349
upperback -1.53155 -1.46364 -0.328693
thorax -2.63334 -0.571122 3.92241
lowerneck -23.7539 -0.38928 -12.0309
upperneck 19.6214 -0.232005 19.2884
head 10.2558 1.58244 9.23606
rclavicle 5.46658e-015 1.23246e-014
rhumerus -53.4649 -27.2502 12.5843
rradius 25.4153
rwrist 48.5529
rhand -27.8753 -12.4132
rfingers 7.12502
rthumb -1.26545 -42.3892
lclavicle 5.46658e-015 1.23246e-014
lhumerus -28.6152 -14.5276 4.95378
lradius 24.0286
lwrist -3.05994
lhand -29.9772 23.6312
lfingers 7.12502
lthumb -3.29543 53.5855
rfemur 114.783 -102.04 -97.7215
rtibia -26.2615
rfoot -127.764 -133.873
rtoes 10.7694
lfemur -24.2633 -23.6055 -5.33078
ltibia 30.8813
lfoot -22.779 -1.26615
ltoes -16.2116
354
root 11.1059 19.6799 -9.73328 553.887 3.95127 178.634
lowerback 1.86085 -0.966445 -7.55445
upperback -1.52315 -1.47617 -0.212513
thorax -2.43917 -0.584355 4.07072
lowerneck -23.9597 -0.281664 -11.9
upperneck 19.6317 -0.0873851 19.02
head 10.2672 1.6193 9.12815
rclavicle -1.73937e-014 -2.90226e-014
rhumerus -53.5338 -27.3887 13.4294
rradius 25.0276
rwrist 48.9623
rhand -27.6262 -12.437
rfingers 7.12502
rthumb -1.02485 -42.4143
lclavicle -1.73937e-014 -2.90226e-014
lhumerus -27.6661 -13.943 4.3513
lradius 24.1399
lwrist -3.86639
lhand -30.2714 23.2451
lfingers 7.12502
lthumb -3.57955 53.1948
rfemur 57.7036 -257.649 73.9693
rtibia 26.0875
rfoot -124.915 -46.9245
rtoes 13.0143
lfemur -25.777 -22.8577 -5.80728
ltibia 30.7444
lfoot -21.7313 -4.04787
ltoes -17.207
